<svg id="visual" viewBox="0 0 900 600" width="900" height="600" xmlns="http://www.w3.org/2000/svg" xmlns:xlink="http://www.w3.org/1999/xlink" version="1.1"><rect x="0" y="0" width="900" height="600" fill="#002233"></rect><path d="M0 219L21.5 206.2C43 193.3 86 167.7 128.8 152C171.7 136.3 214.3 130.7 257.2 142.7C300 154.7 343 184.3 385.8 191.2C428.7 198 471.3 182 514.2 172C557 162 600 158 642.8 164.2C685.7 170.3 728.3 186.7 771.2 192.8C814 199 857 195 878.5 193L900 191L900 0L878.5 0C857 0 814 0 771.2 0C728.3 0 685.7 0 642.8 0C600 0 557 0 514.2 0C471.3 0 428.7 0 385.8 0C343 0 300 0 257.2 0C214.3 0 171.7 0 128.8 0C86 0 43 0 21.5 0L0 0Z" fill="#6c63ff" stroke-linecap="round" stroke-linejoin="miter"></path></svg>