<?xml version="1.0" encoding="utf-8"?>
<!-- Uploaded to SVGRepo https://www.svgrepo.com -->
<svg version="1.1" id="Layer_1" xmlns="http://www.w3.org/2000/svg" xmlns:xlink="http://www.w3.org/1999/xlink" x="0px" y="0px"
	 viewBox="0 0 210 256" style="enable-background:new 0 0 210 256;" xml:space="preserve">
<path d="M75.7,66.3H36.8V55.9h38.9V66.3z M126,55.9H91.7v35.1H126V55.9z M208,254h-80l-31.5-18.1h35.6v-6.3H21l0,0
	c-10.2-1.9-19-11-19-21.6V25C2,12.6,12.6,2,25,2h113c11.7,0,21,9.3,21,21v115h6.4c4.2,0,7.8,2.5,9.2,6.5L208,254z M87.7,214.6
	c0-3.2-2.4-5.6-5.6-5.6c-3,0-5.6,2.6-5.6,5.6c0,3.2,2.4,5.6,5.6,5.6C85.2,220.2,87.5,217.8,87.7,214.6z M144.2,158h-18.9
	c-5.5,0-10-4.5-10-10s4.5-10,10-10H144V31H18v169h126.2V158z M108.8,133.9H36.8v11.3h72.1V133.9z M126.7,162.3H37.4v11.3h89.2V162.3
	z M75.7,80.7H36.8v10.4h38.9V80.7z M126,105.5H36.8v11.3H126V105.5z"/>
</svg>
